<svg width="22" height="22" viewBox="0 0 22 22" fill="none" xmlns="http://www.w3.org/2000/svg">
<path d="M11.8432 2.07165L17.8107 5.28915C18.5073 5.66498 18.5073 6.73748 17.8107 7.11331L11.8432 10.3308C11.3115 10.615 10.6882 10.615 10.1565 10.3308L4.189 7.11331C3.49234 6.73748 3.49234 5.66498 4.189 5.28915L10.1565 2.07165C10.6882 1.78748 11.3115 1.78748 11.8432 2.07165Z" stroke="white" stroke-width="1.5" stroke-linecap="round" stroke-linejoin="round"/>
<path d="M3.30933 9.28583L8.85516 12.0633C9.54266 12.4117 9.98266 13.1175 9.98266 13.8875V19.1308C9.98266 19.8917 9.18516 20.3775 8.50683 20.0383L2.961 17.2608C2.2735 16.9125 1.8335 16.2067 1.8335 15.4367V10.1933C1.8335 9.43249 2.631 8.94666 3.30933 9.28583Z" stroke="white" stroke-width="1.5" stroke-linecap="round" stroke-linejoin="round"/>
<path d="M18.6909 9.28583L13.1451 12.0633C12.4576 12.4117 12.0176 13.1175 12.0176 13.8875V19.1308C12.0176 19.8917 12.8151 20.3775 13.4934 20.0383L19.0392 17.2608C19.7267 16.9125 20.1667 16.2067 20.1667 15.4367V10.1933C20.1667 9.43249 19.3692 8.94666 18.6909 9.28583Z" stroke="white" stroke-width="1.5" stroke-linecap="round" stroke-linejoin="round"/>
</svg>
