<svg width="22" height="22" viewBox="0 0 22 22" fill="none" xmlns="http://www.w3.org/2000/svg">
<path d="M19.9375 13.0799C19.9366 11.2557 17.6156 9.8505 14.4375 9.67267V5.49082C14.4366 3.12307 11.33 2.0625 8.25 2.0625C5.17 2.0625 2.06342 3.12216 2.0625 5.49082V15.5925C2.0625 17.9603 5.17 19.0208 8.25 19.0208C8.56808 19.0208 8.89442 18.9915 9.21892 18.9594C10.4051 19.6222 12.0798 19.9375 13.75 19.9375C16.8291 19.9375 19.9375 18.8769 19.9375 16.5092V13.0799C19.9375 13.0808 19.9375 13.0808 19.9375 13.0799ZM18.5625 13.0817C18.5625 14.0516 16.5046 15.136 13.75 15.136C10.9954 15.136 8.9375 14.0516 8.9375 13.0817C8.9375 12.7261 9.21893 12.3558 9.70568 12.0285C9.72218 12.0193 9.73502 12.0065 9.75061 11.9964C10.5976 11.4464 12.0386 11.0275 13.75 11.0275C16.5046 11.0275 18.5625 12.1119 18.5625 13.0817ZM13.0625 8.73586C13.0625 9.14928 12.6995 9.49481 12.3539 9.73589C11.0788 9.88714 9.97792 10.2438 9.15201 10.7461C8.85868 10.7709 8.56348 10.7892 8.2509 10.7892C5.65856 10.7892 3.4384 9.65986 3.4384 8.73586V7.77153C4.63098 8.55253 6.44323 8.921 8.2509 8.921C10.0586 8.921 11.8708 8.55253 13.0634 7.77153V8.73586H13.0625ZM3.4375 10.8616C4.54025 11.6077 6.16368 12.0743 7.7816 12.1513C7.64226 12.4456 7.5625 12.7554 7.5625 13.0809C7.5625 13.0809 7.5625 13.0808 7.5625 13.0817V14.1891C5.27817 14.014 3.4375 13.0066 3.4375 12.1651V10.8616ZM8.25 3.4375C10.6159 3.4375 13.0625 4.20569 13.0625 5.49178C13.0625 6.82644 10.5829 7.546 8.25 7.546C5.91708 7.546 3.4375 6.82644 3.4375 5.49178C3.4375 4.20569 5.88408 3.4375 8.25 3.4375ZM3.4375 15.5925V14.2899C4.49075 15.0022 6.017 15.4596 7.5625 15.5659V16.5092C7.5625 16.9263 7.66334 17.3003 7.83934 17.6376C5.60909 17.5542 3.4375 16.8034 3.4375 15.5925ZM13.75 18.5625C12.2659 18.5625 10.7507 18.26 9.82759 17.7173C9.27851 17.3947 8.9384 16.9877 8.9384 16.5092V15.2864C10.0549 16.0435 11.7654 16.511 13.7509 16.511C15.7364 16.511 17.4469 16.0435 18.5634 15.2864V16.5092C18.5625 17.7943 16.1159 18.5625 13.75 18.5625Z" fill="white"/>
</svg>
