<svg width="20" height="20" viewBox="0 0 20 20" fill="none" xmlns="http://www.w3.org/2000/svg">
<path d="M19.1161 9.03834C19.116 9.03638 19.116 9.03431 19.1158 9.03235C18.6566 4.68087 15.16 1.24964 10.8309 0.876347C10.5579 0.844117 10.283 0.833374 10.0002 0.833374C9.61344 0.833374 9.23204 0.862689 8.85427 0.909796C7.875 1.03188 6.92745 1.30586 6.02824 1.7393C6.02791 1.73946 6.02762 1.73969 6.02728 1.73986C6.02701 1.73997 6.02756 1.73975 6.02728 1.73986C6.02667 1.74013 6.02539 1.74097 6.02477 1.74126C2.87137 3.25758 0.833496 6.49854 0.833496 10C0.833496 10.6831 0.906005 11.3545 1.04745 11.9954C1.90324 15.8393 5.11157 18.7003 9.04053 19.1166C9.35384 19.147 9.677 19.1667 10.0002 19.1667C12.6633 19.1667 15.1886 18.0119 16.9235 16.0013C18.3701 14.3453 19.1668 12.2138 19.1668 10C19.1668 9.67688 19.1471 9.35372 19.1167 9.0404C19.1166 9.03968 19.1162 9.03906 19.1161 9.03834ZM17.0997 8.18126C14.4415 8.24857 11.9806 9.44301 10.3051 11.4584C9.87298 11.0228 9.48358 10.5533 9.13637 10.0546C10.8552 8.34843 11.8335 6.03617 11.8335 3.58337C11.8335 3.35214 11.8135 3.12504 11.797 2.89721C14.3918 3.54986 16.4367 5.58662 17.0997 8.18126ZM10.0002 3.58337C10.0002 5.36825 9.34814 7.05691 8.19279 8.37814C7.58133 7.02484 7.25016 5.54959 7.25016 4.04171C7.25016 3.77427 7.26197 3.499 7.28546 3.19884C7.34298 3.17573 7.39938 3.14898 7.45728 3.12744C7.54652 3.09421 7.63655 3.06372 7.72674 3.03413C7.77429 3.01857 7.82286 3.00676 7.87069 2.99216C7.9799 2.95887 8.089 2.92542 8.1995 2.89733C8.28678 2.87518 8.37384 2.85274 8.4619 2.83389C8.53413 2.81839 8.60776 2.8091 8.68048 2.79585C8.78299 2.77722 8.88537 2.75803 8.98881 2.74376C9.063 2.73352 9.13646 2.72009 9.21115 2.71209C9.30263 2.70236 9.39572 2.70129 9.48787 2.69497C9.64017 2.68451 9.79173 2.67085 9.9457 2.66973C9.98221 2.96861 10.0002 3.27465 10.0002 3.58337ZM5.42528 4.29393C5.46321 6.1699 5.91684 8.00429 6.75927 9.65579C5.57774 10.4597 4.17365 10.9047 2.72648 10.9164C2.72446 10.9 2.72038 10.8844 2.71853 10.8679C2.68569 10.5833 2.66683 10.2933 2.66683 10C2.66683 7.76175 3.71923 5.66893 5.42528 4.29393ZM3.18761 12.7271C4.81023 12.6343 6.37356 12.1129 7.71163 11.2221C8.17074 11.8653 8.69851 12.46 9.27854 13.0109C8.60021 14.2668 8.22066 15.6568 8.18384 17.0985C5.91237 16.5198 4.05414 14.8962 3.18761 12.7271ZM10.715 14.1885C11.8163 14.9583 13.031 15.544 14.3183 15.9207C13.0765 16.8285 11.5692 17.3334 10.0002 17.3334C10.0002 16.2338 10.2477 15.1652 10.715 14.1885ZM17.244 11.1039C17.2378 11.1451 17.2341 11.1869 17.2272 11.2279C17.1691 11.5712 17.0829 11.9076 16.9773 12.2371C16.9596 12.2924 16.9427 12.348 16.9237 12.4029C16.8126 12.7234 16.6787 13.0353 16.524 13.3371C16.4964 13.3908 16.4673 13.4437 16.4385 13.4967C16.2745 13.7977 16.0917 14.0891 15.8855 14.3654C15.8746 14.38 15.8625 14.3937 15.8515 14.4082C14.353 14.1267 12.9508 13.5099 11.7131 12.6315C13.094 10.9718 15.1371 10 17.3335 10C17.3335 10.3724 17.2991 10.7405 17.244 11.1039Z" fill="white"/>
</svg>
