<svg width="22" height="22" viewBox="0 0 22 22" fill="none" xmlns="http://www.w3.org/2000/svg">
<path fill-rule="evenodd" clip-rule="evenodd" d="M13.0349 2.03468C13.6676 1.40194 14.5609 1.14581 15.5835 1.14581H17.4168C18.4395 1.14581 19.3327 1.40194 19.9655 2.03468C20.5982 2.66742 20.8543 3.56067 20.8543 4.58331V6.41665C20.8543 7.43929 20.5982 8.33254 19.9655 8.96528C19.3327 9.59802 18.4395 9.85415 17.4168 9.85415H15.5835C14.5609 9.85415 13.6676 9.59802 13.0349 8.96528C12.4021 8.33254 12.146 7.43929 12.146 6.41665V4.58331C12.146 3.56067 12.4021 2.66742 13.0349 2.03468ZM14.0071 3.00695C13.7232 3.29088 13.521 3.77262 13.521 4.58331V6.41665C13.521 7.22734 13.7232 7.70908 14.0071 7.99301C14.2911 8.27694 14.7728 8.47915 15.5835 8.47915H17.4168C18.2275 8.47915 18.7093 8.27694 18.9932 7.99301C19.2771 7.70908 19.4793 7.22734 19.4793 6.41665V4.58331C19.4793 3.77262 19.2771 3.29088 18.9932 3.00695C18.7093 2.72302 18.2275 2.52081 17.4168 2.52081H15.5835C14.7728 2.52081 14.2911 2.72302 14.0071 3.00695Z" fill="#2132B2"/>
<path fill-rule="evenodd" clip-rule="evenodd" d="M2.03486 13.0347C2.6676 12.4019 3.56085 12.1458 4.5835 12.1458H6.41683C7.43947 12.1458 8.33273 12.4019 8.96547 13.0347C9.5982 13.6674 9.85433 14.5607 9.85433 15.5833V17.4166C9.85433 18.4393 9.5982 19.3325 8.96547 19.9653C8.33273 20.598 7.43947 20.8541 6.41683 20.8541H4.5835C3.56085 20.8541 2.6676 20.598 2.03486 19.9653C1.40212 19.3325 1.146 18.4393 1.146 17.4166V15.5833C1.146 14.5607 1.40212 13.6674 2.03486 13.0347ZM3.00713 14.0069C2.7232 14.2909 2.521 14.7726 2.521 15.5833V17.4166C2.521 18.2273 2.7232 18.7091 3.00713 18.993C3.29106 19.2769 3.7728 19.4791 4.5835 19.4791H6.41683C7.22752 19.4791 7.70926 19.2769 7.99319 18.993C8.27712 18.7091 8.47933 18.2273 8.47933 17.4166V15.5833C8.47933 14.7726 8.27712 14.2909 7.99319 14.0069C7.70926 13.723 7.22752 13.5208 6.41683 13.5208H4.5835C3.7728 13.5208 3.29106 13.723 3.00713 14.0069Z" fill="#2132B2"/>
<path fill-rule="evenodd" clip-rule="evenodd" d="M5.50016 2.52081C3.85481 2.52081 2.521 3.85463 2.521 5.49998C2.521 7.14533 3.85481 8.47915 5.50016 8.47915C7.14551 8.47915 8.47933 7.14533 8.47933 5.49998C8.47933 3.85463 7.14551 2.52081 5.50016 2.52081ZM1.146 5.49998C1.146 3.09524 3.09542 1.14581 5.50016 1.14581C7.9049 1.14581 9.85433 3.09524 9.85433 5.49998C9.85433 7.90472 7.9049 9.85415 5.50016 9.85415C3.09542 9.85415 1.146 7.90472 1.146 5.49998Z" fill="#2132B2"/>
<path fill-rule="evenodd" clip-rule="evenodd" d="M16.5002 13.5208C14.8548 13.5208 13.521 14.8546 13.521 16.5C13.521 18.1453 14.8548 19.4791 16.5002 19.4791C18.1455 19.4791 19.4793 18.1453 19.4793 16.5C19.4793 14.8546 18.1455 13.5208 16.5002 13.5208ZM12.146 16.5C12.146 14.0952 14.0954 12.1458 16.5002 12.1458C18.9049 12.1458 20.8543 14.0952 20.8543 16.5C20.8543 18.9047 18.9049 20.8541 16.5002 20.8541C14.0954 20.8541 12.146 18.9047 12.146 16.5Z" fill="#2132B2"/>
</svg>
