<svg width="22" height="22" viewBox="0 0 22 22" fill="none" xmlns="http://www.w3.org/2000/svg">
<path d="M20.1665 5.50016V7.71849C20.1665 9.16683 19.2498 10.0835 17.8015 10.0835H14.6665V3.67599C14.6665 2.65849 15.5007 1.8335 16.5182 1.8335C17.5173 1.84266 18.434 2.24599 19.094 2.90599C19.754 3.57516 20.1665 4.49183 20.1665 5.50016Z" stroke="#2132B2" stroke-width="1.5" stroke-miterlimit="10" stroke-linecap="round" stroke-linejoin="round"/>
<path d="M1.8335 6.41683V19.2502C1.8335 20.011 2.69517 20.4418 3.30017 19.9835L4.86766 18.8102C5.23433 18.5352 5.74767 18.5718 6.07767 18.9018L7.59932 20.4327C7.95682 20.7902 8.5435 20.7902 8.901 20.4327L10.441 18.8927C10.7618 18.5718 11.2752 18.5352 11.6327 18.8102L13.2002 19.9835C13.8052 20.4327 14.6668 20.0018 14.6668 19.2502V3.66683C14.6668 2.6585 15.4918 1.8335 16.5002 1.8335H6.41683H5.50016C2.75016 1.8335 1.8335 3.47433 1.8335 5.50016V6.41683Z" stroke="#2132B2" stroke-width="1.5" stroke-miterlimit="10" stroke-linecap="round" stroke-linejoin="round"/>
<path d="M5.729 9.1665H10.7707" stroke="#2132B2" stroke-width="1.5" stroke-linecap="round" stroke-linejoin="round"/>
<path d="M8.25 11.6877V6.646" stroke="#2132B2" stroke-width="1.5" stroke-linecap="round" stroke-linejoin="round"/>
</svg>
