<svg width="22" height="22" viewBox="0 0 22 22" fill="none" xmlns="http://www.w3.org/2000/svg">
<path d="M20.1161 10.0382C20.116 10.0363 20.116 10.0342 20.1158 10.0322C19.6566 5.68075 16.16 2.24952 11.8309 1.87623C11.5579 1.844 11.283 1.83325 11.0002 1.83325C10.6134 1.83325 10.232 1.86257 9.85427 1.90967C8.875 2.03176 7.92745 2.30574 7.02824 2.73918C7.02791 2.73934 7.02762 2.73957 7.02728 2.73973C7.02701 2.73984 7.02756 2.73962 7.02728 2.73973C7.02667 2.74001 7.02539 2.74085 7.02477 2.74114C3.87137 4.25746 1.8335 7.49842 1.8335 10.9999C1.8335 11.6829 1.906 12.3543 2.04745 12.9953C2.90324 16.8392 6.11157 19.7002 10.0405 20.1165C10.3538 20.1469 10.677 20.1666 11.0002 20.1666C13.6633 20.1666 16.1886 19.0118 17.9235 17.0012C19.3701 15.3451 20.1668 13.2137 20.1668 10.9999C20.1668 10.6768 20.1471 10.3536 20.1167 10.0403C20.1166 10.0396 20.1162 10.0389 20.1161 10.0382ZM18.0997 9.18113C15.4415 9.24844 12.9806 10.4429 11.3051 12.4583C10.873 12.0227 10.4836 11.5531 10.1364 11.0545C11.8552 9.34831 12.8335 7.03605 12.8335 4.58325C12.8335 4.35201 12.8135 4.12492 12.797 3.89709C15.3918 4.54974 17.4367 6.5865 18.0997 9.18113ZM11.0002 4.58325C11.0002 6.36813 10.3481 8.05679 9.19279 9.37801C8.58133 8.02472 8.25016 6.54947 8.25016 5.04159C8.25016 4.77415 8.26197 4.49888 8.28546 4.19872C8.34298 4.17561 8.39938 4.14886 8.45728 4.12732C8.54652 4.09409 8.63655 4.0636 8.72674 4.034C8.77429 4.01845 8.82286 4.00664 8.87069 3.99204C8.9799 3.95875 9.089 3.9253 9.1995 3.89721C9.28678 3.87505 9.37384 3.85261 9.4619 3.83377C9.53413 3.81827 9.60776 3.80898 9.68048 3.79573C9.78299 3.7771 9.88537 3.7579 9.98881 3.74364C10.063 3.7334 10.1365 3.71997 10.2112 3.71197C10.3026 3.70223 10.3957 3.70117 10.4879 3.69485C10.6402 3.68439 10.7917 3.67073 10.9457 3.66961C10.9822 3.96849 11.0002 4.27453 11.0002 4.58325ZM6.42528 5.29381C6.46321 7.16977 6.91684 9.00417 7.75927 10.6557C6.57774 11.4595 5.17365 11.9046 3.72648 11.9163C3.72446 11.8999 3.72038 11.8842 3.71853 11.8677C3.68569 11.5831 3.66683 11.2932 3.66683 10.9999C3.66683 8.76163 4.71923 6.66881 6.42528 5.29381ZM4.18761 13.727C5.81023 13.6342 7.37356 13.1128 8.71163 12.222C9.17074 12.8651 9.69851 13.4599 10.2785 14.0108C9.60021 15.2666 9.22066 16.6567 9.18384 18.0984C6.91237 17.5196 5.05414 15.8961 4.18761 13.727ZM11.715 15.1884C12.8163 15.9582 14.031 16.5439 15.3183 16.9206C14.0765 17.8284 12.5692 18.3333 11.0002 18.3333C11.0002 17.2337 11.2477 16.1651 11.715 15.1884ZM18.244 12.1038C18.2378 12.145 18.2341 12.1868 18.2272 12.2278C18.1691 12.5711 18.0829 12.9074 17.9773 13.237C17.9596 13.2923 17.9427 13.3479 17.9237 13.4028C17.8126 13.7233 17.6787 14.0351 17.524 14.337C17.4964 14.3907 17.4673 14.4436 17.4385 14.4966C17.2745 14.7976 17.0917 15.089 16.8855 15.3653C16.8746 15.3799 16.8625 15.3936 16.8515 15.4081C15.353 15.1266 13.9508 14.5098 12.7131 13.6314C14.094 11.9716 16.1371 10.9999 18.3335 10.9999C18.3335 11.3723 18.2991 11.7403 18.244 12.1038Z" fill="#2132B2"/>
</svg>
